
<svg xmlns="http://www.w3.org/2000/svg" version="1.1" xmlns:xlink="http://www.w3.org/1999/xlink" preserveAspectRatio="none" x="0px" y="0px" width="186px" height="186px" viewBox="0 0 186 186">
<defs>
<g id="cark0_0_Layer0_0_FILL">
<path fill="#FFFFFF" stroke="none" d="
M 28.4 -92.7
Q 18.05 -86 12.7 -70.35 6.55 -71.4 -0.05 -71.4 -7.05 -71.4 -13.6 -70.25 -18.05 -83.15 -28.5 -92.1 -37 -90.15 -45.5 -85.55 -48.05 -73.6 -40.9 -58.9 -46.1 -55.25 -50.8 -50.6 -55.75 -45.65 -59.45 -40.15 -71.65 -46.05 -85.35 -45.05 -89.95 -37.6 -92.75 -28.35 -86.1 -18.05 -70.55 -12.7 -71.6 -6.5 -71.6 0.15 -71.6 7.15 -70.45 13.65 -83.3 18.05 -92.25 28.5 -90.25 37 -85.65 45.5 -73.75 48 -59.05 40.95 -55.45 46.05 -50.8 50.7 -45.8 55.7 -40.25 59.55 -46.15 71.7 -45.15 85.35 -37.7 89.95 -28.45 92.75 -18.2 86.1 -12.85 70.7 -6.65 71.7 -0.05 71.7 7 71.7 13.55 70.55 17.95 83.3 28.4 92.25 36.9 90.25 45.4 85.65 47.95 73.7 40.85 59 45.9 55.35 50.5 50.7 55.55 45.7 59.35 40.25 71.6 46.15 85.3 45.15 89.9 37.7 92.7 28.45 86.05 18.15 70.5 12.8 71.5 6.7 71.5 0.15 71.5 -6.9 70.35 -13.5 83.2 -17.9 92.2 -28.4 90.2 -36.9 85.6 -45.4 73.6 -47.95 58.85 -40.75 55.2 -45.9 50.5 -50.6 45.55 -55.55 40.15 -59.25 46.1 -71.55 45.1 -85.3 37.65 -89.9 28.4 -92.7
M 40.1 0.1
Q 40.1 16.8 28.3 28.5 16.6 40.3 -0.1 40.3 -16.8 40.3 -28.6 28.5 -40.3 16.8 -40.3 0.1 -40.3 -16.6 -28.6 -28.4 -16.8 -40.1 -0.1 -40.1 16.6 -40.1 28.3 -28.4 40.1 -16.6 40.1 0.1
M 14.1 14.3
Q 20 8.45 20 0.1 20 -8.25 14.1 -14.15 8.25 -20 -0.1 -20 -8.45 -20 -14.35 -14.15 -20.2 -8.25 -20.2 0.1 -20.2 8.45 -14.35 14.3 -8.45 20.2 -0.1 20.2 8.25 20.2 14.1 14.3 Z"/>
</g>
</defs>

<g transform="matrix( 1, 0, 0, 1, 92.75,92.7) ">
<g transform="matrix( 1, 0, 0, 1, 0,0) ">
<use xlink:href="#cark0_0_Layer0_0_FILL"/>
</g>
</g>
</svg>
