
<svg xmlns="http://www.w3.org/2000/svg" version="1.1" xmlns:xlink="http://www.w3.org/1999/xlink" preserveAspectRatio="none" x="0px" y="0px" width="244px" height="244px" viewBox="0 0 244 244">
<defs>
<g id="cark1_0_Layer0_0_FILL">
<path fill="#FFFFFF" stroke="none" d="
M -12.05 -121.95
Q -20.5 -121.45 -28.6 -118.65 -34.4 -107.2 -29.2 -91.5 -40.3 -88.05 -50.2 -81.85
L -50.45 -82.2
Q -58.75 -93.75 -71.45 -99.45 -78.5 -94.8 -84.15 -88.3 -83.4 -75.4 -71 -64.4 -79.05 -55.6 -84.45 -45.6
L -84.75 -45.8
Q -97.7 -51.7 -111.55 -50.3 -115.35 -42.7 -117 -34.3 -109.9 -23.55 -93.65 -20.2 -95.65 -10.45 -95.65 0.1 -95.65 1.45 -95.6 2.8
L -96.3 2.8
Q -110.5 4.25 -121.8 12.35 -121.3 20.8 -118.5 28.9 -107.05 34.7 -91.35 29.5 -87.95 40.55 -81.75 50.45
L -82.15 50.7
Q -93.7 59 -99.4 71.7 -94.75 78.75 -88.25 84.4 -75.4 83.65 -64.45 71.35 -64.4 71.25 -64.35 71.2 -55.55 79.3 -45.6 84.8
L -45.75 85
Q -51.65 97.95 -50.25 111.8 -42.65 115.6 -34.25 117.25 -23.55 110.2 -20.2 94.15 -10.35 96.15 0.35 96.15 1.55 96.15 2.75 96.15
L 2.75 96.5
Q 4.2 110.7 12.3 122 20.75 121.45 28.85 118.7 34.6 107.4 29.6 91.9 40.65 88.45 50.6 82.2 58.9 93.75 71.6 99.45 78.65 94.8 84.3 88.3 83.55 75.55 71.4 64.7 79.55 55.85 85.05 45.9 97.9 51.7 111.65 50.3 115.45 42.7 117.1 34.3 110.15 23.75 94.4 20.35 96.35 10.65 96.35 0.1 96.35 -1.35 96.35 -2.75 110.5 -4.2 121.8 -12.3 121.25 -20.75 118.5 -28.85 107.25 -34.55 91.95 -29.65 88.4 -40.75 82.1 -50.65 93.6 -58.95 99.25 -71.6 94.6 -78.65 88.1 -84.3 75.35 -83.55 64.5 -71.4 55.6 -79.5 45.55 -84.9 51.45 -97.85 50.05 -111.7 42.45 -115.5 34.05 -117.15 23.35 -110.1 20 -94 10.55 -95.85 0.35 -95.85 -1.1 -95.85 -2.5 -95.8
L -2.5 -96.45
Q -3.95 -110.65 -12.05 -121.95
M -48 -47.65
Q -28.15 -67.35 -0.1 -67.35 27.95 -67.35 47.65 -47.65 67.5 -27.8 67.5 0.25 67.5 28.4 47.65 48.1 27.95 67.95 -0.1 67.95 -28.15 67.95 -48 48.1 -67.7 28.4 -67.7 0.25 -67.7 -27.8 -48 -47.65
M -0.2 -39.25
Q -16.6 -39.25 -28.2 -27.75 -39.7 -16.15 -39.7 0.25 -39.7 16.7 -28.2 28.2 -16.6 39.8 -0.2 39.8 16.2 39.8 27.7 28.2 39.3 16.7 39.3 0.25 39.3 -16.15 27.7 -27.75 16.2 -39.25 -0.2 -39.25 Z"/>
</g>
</defs>

<g transform="matrix( 1, 0, 0, 1, 121.8,121.95) ">
<g transform="matrix( 1, 0, 0, 1, 0,0) ">
<use xlink:href="#cark1_0_Layer0_0_FILL"/>
</g>
</g>
</svg>
